<?xml version="1.0" standalone="no"?>
<!DOCTYPE svg PUBLIC "-//W3C//DTD SVG 20010904//EN"
 "http://www.w3.org/TR/2001/REC-SVG-20010904/DTD/svg10.dtd">
<svg version="1.0" xmlns="http://www.w3.org/2000/svg"
 width="1139.000000pt" height="1039.000000pt" viewBox="0 0 1139.000000 1039.000000"
 preserveAspectRatio="xMidYMid meet">

<g transform="translate(0.000000,1039.000000) scale(0.100000,-0.100000)"
fill="#000000" stroke="none">
<path d="M5540 8651 c-47 -31 -385 -259 -752 -505 l-668 -449 0 -318 c0 -176
2 -319 5 -319 3 0 349 229 769 509 l764 509 53 -32 c30 -18 296 -180 592 -359
296 -180 542 -327 547 -327 6 0 504 189 598 227 9 4 12 -30 12 -151 0 -86 3
-156 7 -156 4 0 27 7 50 16 l43 17 0 153 c0 85 -4 154 -9 154 -5 0 -25 -7 -46
-16 -20 -8 -34 -11 -32 -7 3 5 -81 61 -186 124 -106 64 -388 234 -627 379
-871 527 -1011 610 -1023 609 -6 0 -50 -26 -97 -58z"/>
<path d="M8120 6902 l0 -310 163 -100 c89 -55 259 -157 377 -227 118 -70 225
-134 237 -141 22 -14 23 -20 25 -195 l3 -181 153 -69 c85 -38 158 -69 163 -69
5 0 9 66 9 150 0 83 2 150 4 150 2 0 106 -61 230 -135 125 -74 236 -140 246
-145 20 -11 20 -5 20 302 l0 313 -382 227 c-211 124 -563 333 -783 463 -220
130 -415 246 -432 257 l-33 20 0 -310z"/>
<path d="M8920 3011 l0 -71 -965 0 -965 0 0 -160 0 -160 338 0 c185 0 694 -3
1130 -7 l792 -6 0 230 0 230 -107 0 c-60 -1 -134 2 -165 7 l-58 7 0 -70z"/>
<path d="M4750 2780 l0 -160 315 0 315 0 0 160 0 160 -315 0 -315 0 0 -160z"/>
<path d="M4670 1801 c-34 -9 -31 -33 5 -43 96 -25 325 -17 362 14 14 11 12 14
-13 25 -40 17 -72 16 -119 -6 -39 -17 -41 -17 -70 1 -31 18 -114 23 -165 9z"/>
</g>
</svg>
